<svg width="70" height="59" viewBox="0 0 70 59" fill="none" xmlns="http://www.w3.org/2000/svg">
<path d="M70 7.05233C67.3788 8.25341 64.5984 9.04181 61.7515 9.39129C64.7169 7.55293 66.9938 4.64181 68.066 1.17324C65.247 2.90353 62.1628 4.12262 58.9466 4.77785C56.3268 1.89105 52.5946 0.0869141 48.4638 0.0869141C40.5325 0.0869141 34.102 6.73782 34.102 14.9409C34.102 16.1053 34.2292 17.2388 34.4739 18.3263C22.5384 17.7066 11.9563 11.793 4.87293 2.80599C3.63699 4.99987 2.92879 7.55179 2.92879 10.2737C2.92879 15.4273 5.46438 19.9737 9.31766 22.6377C7.03705 22.5638 4.80662 21.9267 2.81258 20.7795C2.81176 20.8417 2.81176 20.904 2.81176 20.9665C2.81176 28.1635 7.76207 34.1673 14.3317 35.5319C12.2169 36.1268 9.9986 36.2139 7.84629 35.7865C9.67367 41.6879 14.9775 45.9823 21.2617 46.1025C16.3466 50.0864 10.1541 52.4613 3.4259 52.4613C2.26652 52.4613 1.12355 52.3908 0 52.2537C6.35551 56.4683 13.9043 58.9275 22.0145 58.9275C48.4304 58.9275 62.8753 36.2927 62.8753 16.6636C62.8753 16.0193 62.8616 15.3787 62.8338 14.7418C65.6453 12.6395 68.072 10.0356 70 7.05233" fill="#55ACEE"/>
</svg>
